<?xml version="1.0" encoding="UTF-8" standalone="no"?>
<!DOCTYPE svg PUBLIC "-//W3C//DTD SVG 1.1//EN"
 "http://www.w3.org/Graphics/SVG/1.1/DTD/svg11.dtd">
<!-- Generated by graphviz version 2.40.1 (20161225.0304)
 -->
<!-- Pages: 1 -->
<svg width="602pt" height="283pt"
 viewBox="0.00 0.00 602.00 283.00" xmlns="http://www.w3.org/2000/svg" xmlns:xlink="http://www.w3.org/1999/xlink">
<g id="graph0" class="graph" transform="scale(1 1) rotate(0) translate(4 279)">
<polygon fill="#ffffff" stroke="transparent" points="-4,4 -4,-279 598,-279 598,4 -4,4"/>
<g id="clust1" class="cluster">
<title>cluster_Phase 2</title>
<polygon fill="none" stroke="#000000" stroke-dasharray="5,2" points="149.5,-8 149.5,-267 444.5,-267 444.5,-8 149.5,-8"/>
<text text-anchor="middle" x="179.0782" y="-250.4" font-family="Times,serif" font-size="14.00" fill="#000000">Phase 2</text>
</g>
<!-- 5 -->
<g id="node1" class="node">
<title>5</title>
<polygon fill="#d3d3d3" stroke="#000000" points="472.5,-75.4 472.5,-174.6 594,-174.6 594,-75.4 472.5,-75.4"/>
<text text-anchor="middle" x="533.25" y="-158" font-family="Times,serif" font-size="14.00" fill="#000000">Deploy</text>
<polyline fill="none" stroke="#000000" points="472.5,-149.8 594,-149.8 "/>
<text text-anchor="middle" x="492.75" y="-133.2" font-family="Times,serif" font-size="14.00" fill="#000000">3.0d</text>
<polyline fill="none" stroke="#000000" points="513,-125 513,-149.8 "/>
<text text-anchor="middle" x="533.25" y="-133.2" font-family="Times,serif" font-size="14.00" fill="#000000">3.5d</text>
<polyline fill="none" stroke="#000000" points="553.5,-125 553.5,-149.8 "/>
<text text-anchor="middle" x="573.75" y="-133.2" font-family="Times,serif" font-size="14.00" fill="#000000">8.0d</text>
<polyline fill="none" stroke="#000000" points="472.5,-125 594,-125 "/>
<text text-anchor="middle" x="533.25" y="-108.4" font-family="Times,serif" font-size="14.00" fill="#000000">CP: 100.%</text>
<polyline fill="none" stroke="#000000" points="472.5,-100.2 594,-100.2 "/>
<text text-anchor="middle" x="492.75" y="-83.6" font-family="Times,serif" font-size="14.00" fill="#000000">13.5</text>
<polyline fill="none" stroke="#000000" points="513,-75.4 513,-100.2 "/>
<text text-anchor="middle" x="533.25" y="-83.6" font-family="Times,serif" font-size="14.00" fill="#000000">16.2</text>
<polyline fill="none" stroke="#000000" points="553.5,-75.4 553.5,-100.2 "/>
<text text-anchor="middle" x="573.75" y="-83.6" font-family="Times,serif" font-size="14.00" fill="#000000">19.0</text>
</g>
<!-- 0 -->
<g id="node2" class="node">
<title>0</title>
<polygon fill="#d3d3d3" stroke="#000000" points="0,-75.4 0,-174.6 121.5,-174.6 121.5,-75.4 0,-75.4"/>
<text text-anchor="middle" x="60.75" y="-158" font-family="Times,serif" font-size="14.00" fill="#000000">Build backend</text>
<polyline fill="none" stroke="#000000" points="0,-149.8 121.5,-149.8 "/>
<text text-anchor="middle" x="20.25" y="-133.2" font-family="Times,serif" font-size="14.00" fill="#000000">0.5d</text>
<polyline fill="none" stroke="#000000" points="40.5,-125 40.5,-149.8 "/>
<text text-anchor="middle" x="60.75" y="-133.2" font-family="Times,serif" font-size="14.00" fill="#000000">1.5d</text>
<polyline fill="none" stroke="#000000" points="81,-125 81,-149.8 "/>
<text text-anchor="middle" x="101.25" y="-133.2" font-family="Times,serif" font-size="14.00" fill="#000000">4.0d</text>
<polyline fill="none" stroke="#000000" points="0,-125 121.5,-125 "/>
<text text-anchor="middle" x="60.75" y="-108.4" font-family="Times,serif" font-size="14.00" fill="#000000">CP: 100.%</text>
<polyline fill="none" stroke="#000000" points="0,-100.2 121.5,-100.2 "/>
<text text-anchor="middle" x="20.25" y="-83.6" font-family="Times,serif" font-size="14.00" fill="#000000">0.78</text>
<polyline fill="none" stroke="#000000" points="40.5,-75.4 40.5,-100.2 "/>
<text text-anchor="middle" x="60.75" y="-83.6" font-family="Times,serif" font-size="14.00" fill="#000000">1.67</text>
<polyline fill="none" stroke="#000000" points="81,-75.4 81,-100.2 "/>
<text text-anchor="middle" x="101.25" y="-83.6" font-family="Times,serif" font-size="14.00" fill="#000000">2.87</text>
</g>
<!-- 1 -->
<g id="node5" class="node">
<title>1</title>
<polygon fill="#d3d3d3" stroke="#000000" points="157.5,-134.4 157.5,-233.6 279,-233.6 279,-134.4 157.5,-134.4"/>
<text text-anchor="middle" x="218.25" y="-217" font-family="Times,serif" font-size="14.00" fill="#000000">Build frontend</text>
<polyline fill="none" stroke="#000000" points="157.5,-208.8 279,-208.8 "/>
<text text-anchor="middle" x="177.75" y="-192.2" font-family="Times,serif" font-size="14.00" fill="#000000">2.0d</text>
<polyline fill="none" stroke="#000000" points="198,-184 198,-208.8 "/>
<text text-anchor="middle" x="218.25" y="-192.2" font-family="Times,serif" font-size="14.00" fill="#000000">4.5d</text>
<polyline fill="none" stroke="#000000" points="238.5,-184 238.5,-208.8 "/>
<text text-anchor="middle" x="258.75" y="-192.2" font-family="Times,serif" font-size="14.00" fill="#000000">7.0d</text>
<polyline fill="none" stroke="#000000" points="157.5,-184 279,-184 "/>
<text text-anchor="middle" x="218.25" y="-167.4" font-family="Times,serif" font-size="14.00" fill="#000000">CP: 67.8%</text>
<polyline fill="none" stroke="#000000" points="157.5,-159.2 279,-159.2 "/>
<text text-anchor="middle" x="177.75" y="-142.6" font-family="Times,serif" font-size="14.00" fill="#000000">4.49</text>
<polyline fill="none" stroke="#000000" points="198,-134.4 198,-159.2 "/>
<text text-anchor="middle" x="218.25" y="-142.6" font-family="Times,serif" font-size="14.00" fill="#000000">6.16</text>
<polyline fill="none" stroke="#000000" points="238.5,-134.4 238.5,-159.2 "/>
<text text-anchor="middle" x="258.75" y="-142.6" font-family="Times,serif" font-size="14.00" fill="#000000">8.03</text>
</g>
<!-- 0&#45;&gt;1 -->
<g id="edge7" class="edge">
<title>0&#45;&gt;1</title>
<path fill="none" stroke="#000000" d="M121.6436,-147.8109C130.2256,-151.0258 139.1062,-154.3525 147.848,-157.6272"/>
<polygon fill="#000000" stroke="#000000" points="146.6663,-160.922 157.2587,-161.1525 149.122,-154.3668 146.6663,-160.922"/>
</g>
<!-- 3 -->
<g id="node6" class="node">
<title>3</title>
<polygon fill="#d3d3d3" stroke="#000000" points="157.5,-16.4 157.5,-115.6 279,-115.6 279,-16.4 157.5,-16.4"/>
<text text-anchor="middle" x="218.25" y="-99" font-family="Times,serif" font-size="14.00" fill="#000000">Write docs (1)</text>
<polyline fill="none" stroke="#000000" points="157.5,-90.8 279,-90.8 "/>
<text text-anchor="middle" x="177.75" y="-74.2" font-family="Times,serif" font-size="14.00" fill="#000000">1.0d</text>
<polyline fill="none" stroke="#000000" points="198,-66 198,-90.8 "/>
<text text-anchor="middle" x="218.25" y="-74.2" font-family="Times,serif" font-size="14.00" fill="#000000">4.0d</text>
<polyline fill="none" stroke="#000000" points="238.5,-66 238.5,-90.8 "/>
<text text-anchor="middle" x="258.75" y="-74.2" font-family="Times,serif" font-size="14.00" fill="#000000">9.0d</text>
<polyline fill="none" stroke="#000000" points="157.5,-66 279,-66 "/>
<text text-anchor="middle" x="218.25" y="-49.4" font-family="Times,serif" font-size="14.00" fill="#000000">CP: 32.2%</text>
<polyline fill="none" stroke="#000000" points="157.5,-41.2 279,-41.2 "/>
<text text-anchor="middle" x="177.75" y="-24.6" font-family="Times,serif" font-size="14.00" fill="#000000">3.58</text>
<polyline fill="none" stroke="#000000" points="198,-16.4 198,-41.2 "/>
<text text-anchor="middle" x="218.25" y="-24.6" font-family="Times,serif" font-size="14.00" fill="#000000">6.12</text>
<polyline fill="none" stroke="#000000" points="238.5,-16.4 238.5,-41.2 "/>
<text text-anchor="middle" x="258.75" y="-24.6" font-family="Times,serif" font-size="14.00" fill="#000000">8.85</text>
</g>
<!-- 0&#45;&gt;3 -->
<g id="edge6" class="edge">
<title>0&#45;&gt;3</title>
<path fill="none" stroke="#000000" d="M121.6436,-102.1891C130.2256,-98.9742 139.1062,-95.6475 147.848,-92.3728"/>
<polygon fill="#000000" stroke="#000000" points="149.122,-95.6332 157.2587,-88.8475 146.6663,-89.078 149.122,-95.6332"/>
</g>
<!-- 2 -->
<g id="node3" class="node">
<title>2</title>
<polygon fill="#d3d3d3" stroke="#000000" points="315,-134.4 315,-233.6 436.5,-233.6 436.5,-134.4 315,-134.4"/>
<text text-anchor="middle" x="375.75" y="-217" font-family="Times,serif" font-size="14.00" fill="#000000">User testing</text>
<polyline fill="none" stroke="#000000" points="315,-208.8 436.5,-208.8 "/>
<text text-anchor="middle" x="335.25" y="-192.2" font-family="Times,serif" font-size="14.00" fill="#000000">3.0d</text>
<polyline fill="none" stroke="#000000" points="355.5,-184 355.5,-208.8 "/>
<text text-anchor="middle" x="375.75" y="-192.2" font-family="Times,serif" font-size="14.00" fill="#000000">5.0d</text>
<polyline fill="none" stroke="#000000" points="396,-184 396,-208.8 "/>
<text text-anchor="middle" x="416.25" y="-192.2" font-family="Times,serif" font-size="14.00" fill="#000000">8.0d</text>
<polyline fill="none" stroke="#000000" points="315,-184 436.5,-184 "/>
<text text-anchor="middle" x="375.75" y="-167.4" font-family="Times,serif" font-size="14.00" fill="#000000">CP: 52.3%</text>
<polyline fill="none" stroke="#000000" points="315,-159.2 436.5,-159.2 "/>
<text text-anchor="middle" x="335.25" y="-142.6" font-family="Times,serif" font-size="14.00" fill="#000000">8.82</text>
<polyline fill="none" stroke="#000000" points="355.5,-134.4 355.5,-159.2 "/>
<text text-anchor="middle" x="375.75" y="-142.6" font-family="Times,serif" font-size="14.00" fill="#000000">11.3</text>
<polyline fill="none" stroke="#000000" points="396,-134.4 396,-159.2 "/>
<text text-anchor="middle" x="416.25" y="-142.6" font-family="Times,serif" font-size="14.00" fill="#000000">13.6</text>
</g>
<!-- 2&#45;&gt;5 -->
<g id="edge1" class="edge">
<title>2&#45;&gt;5</title>
<path fill="none" stroke="#000000" d="M436.6436,-161.1891C445.2256,-157.9742 454.1062,-154.6475 462.848,-151.3728"/>
<polygon fill="#000000" stroke="#000000" points="464.122,-154.6332 472.2587,-147.8475 461.6663,-148.078 464.122,-154.6332"/>
</g>
<!-- 4 -->
<g id="node4" class="node">
<title>4</title>
<polygon fill="#d3d3d3" stroke="#000000" points="315,-16.4 315,-115.6 436.5,-115.6 436.5,-16.4 315,-16.4"/>
<text text-anchor="middle" x="375.75" y="-99" font-family="Times,serif" font-size="14.00" fill="#000000">Write docs (2)</text>
<polyline fill="none" stroke="#000000" points="315,-90.8 436.5,-90.8 "/>
<text text-anchor="middle" x="335.25" y="-74.2" font-family="Times,serif" font-size="14.00" fill="#000000">2.0d</text>
<polyline fill="none" stroke="#000000" points="355.5,-66 355.5,-90.8 "/>
<text text-anchor="middle" x="375.75" y="-74.2" font-family="Times,serif" font-size="14.00" fill="#000000">4.0d</text>
<polyline fill="none" stroke="#000000" points="396,-66 396,-90.8 "/>
<text text-anchor="middle" x="416.25" y="-74.2" font-family="Times,serif" font-size="14.00" fill="#000000">9.0d</text>
<polyline fill="none" stroke="#000000" points="315,-66 436.5,-66 "/>
<text text-anchor="middle" x="375.75" y="-49.4" font-family="Times,serif" font-size="14.00" fill="#000000">CP: 47.6%</text>
<polyline fill="none" stroke="#000000" points="315,-41.2 436.5,-41.2 "/>
<text text-anchor="middle" x="335.25" y="-24.6" font-family="Times,serif" font-size="14.00" fill="#000000">8.56</text>
<polyline fill="none" stroke="#000000" points="355.5,-16.4 355.5,-41.2 "/>
<text text-anchor="middle" x="375.75" y="-24.6" font-family="Times,serif" font-size="14.00" fill="#000000">11.3</text>
<polyline fill="none" stroke="#000000" points="396,-16.4 396,-41.2 "/>
<text text-anchor="middle" x="416.25" y="-24.6" font-family="Times,serif" font-size="14.00" fill="#000000">14.3</text>
</g>
<!-- 4&#45;&gt;5 -->
<g id="edge2" class="edge">
<title>4&#45;&gt;5</title>
<path fill="none" stroke="#000000" d="M436.6436,-88.8109C445.2256,-92.0258 454.1062,-95.3525 462.848,-98.6272"/>
<polygon fill="#000000" stroke="#000000" points="461.6663,-101.922 472.2587,-102.1525 464.122,-95.3668 461.6663,-101.922"/>
</g>
<!-- 1&#45;&gt;2 -->
<g id="edge5" class="edge">
<title>1&#45;&gt;2</title>
<path fill="none" stroke="#000000" d="M279.1436,-184C287.4517,-184 296.0396,-184 304.5106,-184"/>
<polygon fill="#000000" stroke="#000000" points="304.7587,-187.5001 314.7587,-184 304.7586,-180.5001 304.7587,-187.5001"/>
</g>
<!-- 1&#45;&gt;4 -->
<g id="edge3" class="edge">
<title>1&#45;&gt;4</title>
<path fill="none" stroke="#000000" d="M279.1436,-138.3781C288.1821,-131.6065 297.5518,-124.5866 306.7417,-117.7014"/>
<polygon fill="#000000" stroke="#000000" points="308.8542,-120.4921 314.7587,-111.6951 304.657,-114.89 308.8542,-120.4921"/>
</g>
<!-- 3&#45;&gt;4 -->
<g id="edge4" class="edge">
<title>3&#45;&gt;4</title>
<path fill="none" stroke="#000000" d="M279.1436,-66C287.4517,-66 296.0396,-66 304.5106,-66"/>
<polygon fill="#000000" stroke="#000000" points="304.7587,-69.5001 314.7587,-66 304.7586,-62.5001 304.7587,-69.5001"/>
</g>
</g>
</svg>
