<?xml version="1.0" encoding="UTF-8" standalone="no"?>
<!DOCTYPE svg PUBLIC "-//W3C//DTD SVG 1.1//EN" "http://www.w3.org/Graphics/SVG/1.1/DTD/svg11.dtd">
<!-- Generated by graphviz version 2.40.1 (20161225.0304)
 -->
<!-- Title: %0 Pages: 1 -->
<svg width="445pt" height="86pt" viewBox="0.00 0.00 444.50 85.60" xmlns="http://www.w3.org/2000/svg" xmlns:xlink="http://www.w3.org/1999/xlink">
<g id="graph0" class="graph" transform="scale(1 1) rotate(0) translate(4 81.6)">
<title>%0</title>
<polygon fill="#ffffff" stroke="transparent" points="-4,4 -4,-81.6 440.5,-81.6 440.5,4 -4,4"/>
<!-- TaskID 0 -->
<g id="node1" class="node">
<title>TaskID 0</title>
<polygon fill="#ededed" stroke="#000000" points="0,-.5 0,-50.1 121.5,-50.1 121.5,-.5 0,-.5"/>
<text text-anchor="middle" x="60.75" y="-33.5" font-family="Times,serif" font-size="14.00" fill="#000000">Build backend</text>
<polyline fill="none" stroke="#000000" points="0,-25.3 121.5,-25.3 "/>
<text text-anchor="middle" x="20.25" y="-8.7" font-family="Times,serif" font-size="14.00" fill="#000000">0.5d</text>
<polyline fill="none" stroke="#000000" points="40.5,-.5 40.5,-25.3 "/>
<text text-anchor="middle" x="60.75" y="-8.7" font-family="Times,serif" font-size="14.00" fill="#000000">1.5d</text>
<polyline fill="none" stroke="#000000" points="81,-.5 81,-25.3 "/>
<text text-anchor="middle" x="101.25" y="-8.7" font-family="Times,serif" font-size="14.00" fill="#000000">4.0d</text>
</g>
<!-- TaskID 1 -->
<g id="node2" class="node">
<title>TaskID 1</title>
<polygon fill="#ededed" stroke="#000000" points="157.5,-27.5 157.5,-77.1 279,-77.1 279,-27.5 157.5,-27.5"/>
<text text-anchor="middle" x="218.25" y="-60.5" font-family="Times,serif" font-size="14.00" fill="#000000">Build frontend</text>
<polyline fill="none" stroke="#000000" points="157.5,-52.3 279,-52.3 "/>
<text text-anchor="middle" x="177.75" y="-35.7" font-family="Times,serif" font-size="14.00" fill="#000000">2.0d</text>
<polyline fill="none" stroke="#000000" points="198,-27.5 198,-52.3 "/>
<text text-anchor="middle" x="218.25" y="-35.7" font-family="Times,serif" font-size="14.00" fill="#000000">4.5d</text>
<polyline fill="none" stroke="#000000" points="238.5,-27.5 238.5,-52.3 "/>
<text text-anchor="middle" x="258.75" y="-35.7" font-family="Times,serif" font-size="14.00" fill="#000000">7.0d</text>
</g>
<!-- TaskID 0&#45;&gt;TaskID 1 -->
<g id="edge1" class="edge">
<title>TaskID 0-&gt;TaskID 1</title>
<path fill="none" stroke="#000000" d="M121.6436,-35.7389C130.043,-37.1788 138.7284,-38.6677 147.2898,-40.1354"/>
<polygon fill="#000000" stroke="#000000" points="146.811,-43.6043 157.2587,-41.8443 147.9938,-36.7049 146.811,-43.6043"/>
</g>
<!-- TaskID 2 -->
<g id="node3" class="node">
<title>TaskID 2</title>
<polygon fill="#ededed" stroke="#000000" points="315,-.5 315,-50.1 436.5,-50.1 436.5,-.5 315,-.5"/>
<text text-anchor="middle" x="375.75" y="-33.5" font-family="Times,serif" font-size="14.00" fill="#000000">Write docs</text>
<polyline fill="none" stroke="#000000" points="315,-25.3 436.5,-25.3 "/>
<text text-anchor="middle" x="335.25" y="-8.7" font-family="Times,serif" font-size="14.00" fill="#000000">3.0d</text>
<polyline fill="none" stroke="#000000" points="355.5,-.5 355.5,-25.3 "/>
<text text-anchor="middle" x="375.75" y="-8.7" font-family="Times,serif" font-size="14.00" fill="#000000">4.0d</text>
<polyline fill="none" stroke="#000000" points="396,-.5 396,-25.3 "/>
<text text-anchor="middle" x="416.25" y="-8.7" font-family="Times,serif" font-size="14.00" fill="#000000">9.0d</text>
</g>
<!-- TaskID 0&#45;&gt;TaskID 2 -->
<g id="edge2" class="edge">
<title>TaskID 0-&gt;TaskID 2</title>
<path fill="none" stroke="#000000" d="M121.6142,-20.223C133.5062,-19.4215 145.8874,-18.7195 157.5,-18.3 211.4648,-16.3503 225.0352,-16.3503 279,-18.3 287.3465,-18.6015 296.0902,-19.049 304.7638,-19.5744"/>
<polygon fill="#000000" stroke="#000000" points="304.6824,-23.0763 314.8858,-20.223 305.1301,-16.0906 304.6824,-23.0763"/>
</g>
<!-- TaskID 1&#45;&gt;TaskID 2 -->
<g id="edge3" class="edge">
<title>TaskID 1-&gt;TaskID 2</title>
<path fill="none" stroke="#000000" d="M279.1436,-41.8611C287.543,-40.4212 296.2284,-38.9323 304.7898,-37.4646"/>
<polygon fill="#000000" stroke="#000000" points="305.4938,-40.8951 314.7587,-35.7557 304.311,-33.9957 305.4938,-40.8951"/>
</g>
</g>
</svg>