<?xml version="1.0" encoding="UTF-8" standalone="no"?>
<!DOCTYPE svg PUBLIC "-//W3C//DTD SVG 1.1//EN" "http://www.w3.org/Graphics/SVG/1.1/DTD/svg11.dtd">
<!-- Generated by graphviz version 2.40.1 (20161225.0304)
 -->
<!-- Title: %0 Pages: 1 -->
<svg width="508pt" height="226pt" viewBox="0.00 0.00 507.50 226.20" xmlns="http://www.w3.org/2000/svg" xmlns:xlink="http://www.w3.org/1999/xlink">
<g id="graph0" class="graph" transform="scale(1 1) rotate(0) translate(4 222.2)">
<title>%0</title>
<polygon fill="#ffffff" stroke="transparent" points="-4,4 -4,-222.2 503.5,-222.2 503.5,4 -4,4"/>
<!-- TaskID 0 -->
<g id="node1" class="node">
<title>TaskID 0</title>
<polygon fill="#ededed" stroke="#000000" points="0,-59.5 0,-158.7 142.5,-158.7 142.5,-59.5 0,-59.5"/>
<text text-anchor="middle" x="71.25" y="-142.1" font-family="Times,serif" font-size="14.00" fill="#000000">Build backend</text>
<polyline fill="none" stroke="#000000" points="0,-133.9 142.5,-133.9 "/>
<text text-anchor="middle" x="23.75" y="-117.3" font-family="Times,serif" font-size="14.00" fill="#000000">0.5d</text>
<polyline fill="none" stroke="#000000" points="47.5,-109.1 47.5,-133.9 "/>
<text text-anchor="middle" x="71.25" y="-117.3" font-family="Times,serif" font-size="14.00" fill="#000000">1.5d</text>
<polyline fill="none" stroke="#000000" points="95,-109.1 95,-133.9 "/>
<text text-anchor="middle" x="118.75" y="-117.3" font-family="Times,serif" font-size="14.00" fill="#000000">4.0d</text>
<polyline fill="none" stroke="#000000" points="0,-109.1 142.5,-109.1 "/>
<text text-anchor="middle" x="71.25" y="-92.5" font-family="Times,serif" font-size="14.00" fill="#000000">CP: 100.%</text>
<polyline fill="none" stroke="#000000" points="0,-84.3 142.5,-84.3 "/>
<text text-anchor="middle" x="23.75" y="-67.7" font-family="Times,serif" font-size="14.00" fill="#000000">0.81d</text>
<polyline fill="none" stroke="#000000" points="47.5,-59.5 47.5,-84.3 "/>
<text text-anchor="middle" x="71.25" y="-67.7" font-family="Times,serif" font-size="14.00" fill="#000000">1.68d</text>
<polyline fill="none" stroke="#000000" points="95,-59.5 95,-84.3 "/>
<text text-anchor="middle" x="118.75" y="-67.7" font-family="Times,serif" font-size="14.00" fill="#000000">2.83d</text>
</g>
<!-- TaskID 1 -->
<g id="node2" class="node">
<title>TaskID 1</title>
<polygon fill="#ededed" stroke="#000000" points="178.5,-118.5 178.5,-217.7 321,-217.7 321,-118.5 178.5,-118.5"/>
<text text-anchor="middle" x="249.75" y="-201.1" font-family="Times,serif" font-size="14.00" fill="#000000">Build frontend</text>
<polyline fill="none" stroke="#000000" points="178.5,-192.9 321,-192.9 "/>
<text text-anchor="middle" x="202.25" y="-176.3" font-family="Times,serif" font-size="14.00" fill="#000000">2.0d</text>
<polyline fill="none" stroke="#000000" points="226,-168.1 226,-192.9 "/>
<text text-anchor="middle" x="249.75" y="-176.3" font-family="Times,serif" font-size="14.00" fill="#000000">4.5d</text>
<polyline fill="none" stroke="#000000" points="273.5,-168.1 273.5,-192.9 "/>
<text text-anchor="middle" x="297.25" y="-176.3" font-family="Times,serif" font-size="14.00" fill="#000000">7.0d</text>
<polyline fill="none" stroke="#000000" points="178.5,-168.1 321,-168.1 "/>
<text text-anchor="middle" x="249.75" y="-151.5" font-family="Times,serif" font-size="14.00" fill="#000000">CP: 47.5%</text>
<polyline fill="none" stroke="#000000" points="178.5,-143.3 321,-143.3 "/>
<text text-anchor="middle" x="202.25" y="-126.7" font-family="Times,serif" font-size="14.00" fill="#000000">4.36d</text>
<polyline fill="none" stroke="#000000" points="226,-118.5 226,-143.3 "/>
<text text-anchor="middle" x="249.75" y="-126.7" font-family="Times,serif" font-size="14.00" fill="#000000">6.23d</text>
<polyline fill="none" stroke="#000000" points="273.5,-118.5 273.5,-143.3 "/>
<text text-anchor="middle" x="297.25" y="-126.7" font-family="Times,serif" font-size="14.00" fill="#000000">8.12d</text>
</g>
<!-- TaskID 0&#45;&gt;TaskID 1 -->
<g id="edge1" class="edge">
<title>TaskID 0-&gt;TaskID 1</title>
<path fill="none" stroke="#000000" d="M142.5675,-132.6727C151.1046,-135.4945 159.8701,-138.3918 168.5338,-141.2554"/>
<polygon fill="#000000" stroke="#000000" points="167.6613,-144.6532 178.2545,-144.4684 169.8581,-138.0069 167.6613,-144.6532"/>
</g>
<!-- TaskID 2 -->
<g id="node3" class="node">
<title>TaskID 2</title>
<polygon fill="#ededed" stroke="#000000" points="178.5,-.5 178.5,-99.7 321,-99.7 321,-.5 178.5,-.5"/>
<text text-anchor="middle" x="249.75" y="-83.1" font-family="Times,serif" font-size="14.00" fill="#000000">Write docs</text>
<polyline fill="none" stroke="#000000" points="178.5,-74.9 321,-74.9 "/>
<text text-anchor="middle" x="202.25" y="-58.3" font-family="Times,serif" font-size="14.00" fill="#000000">3.0d</text>
<polyline fill="none" stroke="#000000" points="226,-50.1 226,-74.9 "/>
<text text-anchor="middle" x="249.75" y="-58.3" font-family="Times,serif" font-size="14.00" fill="#000000">4.0d</text>
<polyline fill="none" stroke="#000000" points="273.5,-50.1 273.5,-74.9 "/>
<text text-anchor="middle" x="297.25" y="-58.3" font-family="Times,serif" font-size="14.00" fill="#000000">9.0d</text>
<polyline fill="none" stroke="#000000" points="178.5,-50.1 321,-50.1 "/>
<text text-anchor="middle" x="249.75" y="-33.5" font-family="Times,serif" font-size="14.00" fill="#000000">CP: 52.4%</text>
<polyline fill="none" stroke="#000000" points="178.5,-25.3 321,-25.3 "/>
<text text-anchor="middle" x="202.25" y="-8.7" font-family="Times,serif" font-size="14.00" fill="#000000">4.61d</text>
<polyline fill="none" stroke="#000000" points="226,-.5 226,-25.3 "/>
<text text-anchor="middle" x="249.75" y="-8.7" font-family="Times,serif" font-size="14.00" fill="#000000">6.28d</text>
<polyline fill="none" stroke="#000000" points="273.5,-.5 273.5,-25.3 "/>
<text text-anchor="middle" x="297.25" y="-8.7" font-family="Times,serif" font-size="14.00" fill="#000000">8.56d</text>
</g>
<!-- TaskID 0&#45;&gt;TaskID 2 -->
<g id="edge2" class="edge">
<title>TaskID 0-&gt;TaskID 2</title>
<path fill="none" stroke="#000000" d="M142.5675,-85.5273C151.1046,-82.7055 159.8701,-79.8082 168.5338,-76.9446"/>
<polygon fill="#000000" stroke="#000000" points="169.8581,-80.1931 178.2545,-73.7316 167.6613,-73.5468 169.8581,-80.1931"/>
</g>
<!-- TaskID 3 -->
<g id="node4" class="node">
<title>TaskID 3</title>
<polygon fill="#ededed" stroke="#000000" points="357,-59.5 357,-158.7 499.5,-158.7 499.5,-59.5 357,-59.5"/>
<text text-anchor="middle" x="428.25" y="-142.1" font-family="Times,serif" font-size="14.00" fill="#000000">Deploy</text>
<polyline fill="none" stroke="#000000" points="357,-133.9 499.5,-133.9 "/>
<text text-anchor="middle" x="380.75" y="-117.3" font-family="Times,serif" font-size="14.00" fill="#000000">3.0d</text>
<polyline fill="none" stroke="#000000" points="404.5,-109.1 404.5,-133.9 "/>
<text text-anchor="middle" x="428.25" y="-117.3" font-family="Times,serif" font-size="14.00" fill="#000000">3.5d</text>
<polyline fill="none" stroke="#000000" points="452,-109.1 452,-133.9 "/>
<text text-anchor="middle" x="475.75" y="-117.3" font-family="Times,serif" font-size="14.00" fill="#000000">8.0d</text>
<polyline fill="none" stroke="#000000" points="357,-109.1 499.5,-109.1 "/>
<text text-anchor="middle" x="428.25" y="-92.5" font-family="Times,serif" font-size="14.00" fill="#000000">CP: 100.%</text>
<polyline fill="none" stroke="#000000" points="357,-84.3 499.5,-84.3 "/>
<text text-anchor="middle" x="380.75" y="-67.7" font-family="Times,serif" font-size="14.00" fill="#000000">8.91d</text>
<polyline fill="none" stroke="#000000" points="404.5,-59.5 404.5,-84.3 "/>
<text text-anchor="middle" x="428.25" y="-67.7" font-family="Times,serif" font-size="14.00" fill="#000000">10.9d</text>
<polyline fill="none" stroke="#000000" points="452,-59.5 452,-84.3 "/>
<text text-anchor="middle" x="475.75" y="-67.7" font-family="Times,serif" font-size="14.00" fill="#000000">13.3d</text>
</g>
<!-- TaskID 1&#45;&gt;TaskID 3 -->
<g id="edge3" class="edge">
<title>TaskID 1-&gt;TaskID 3</title>
<path fill="none" stroke="#000000" d="M321.0675,-144.5273C329.6046,-141.7055 338.3701,-138.8082 347.0338,-135.9446"/>
<polygon fill="#000000" stroke="#000000" points="348.3581,-139.1931 356.7545,-132.7316 346.1613,-132.5468 348.3581,-139.1931"/>
</g>
<!-- TaskID 2&#45;&gt;TaskID 3 -->
<g id="edge4" class="edge">
<title>TaskID 2-&gt;TaskID 3</title>
<path fill="none" stroke="#000000" d="M321.0675,-73.6727C329.6046,-76.4945 338.3701,-79.3918 347.0338,-82.2554"/>
<polygon fill="#000000" stroke="#000000" points="346.1613,-85.6532 356.7545,-85.4684 348.3581,-79.0069 346.1613,-85.6532"/>
</g>
</g>
</svg>