<?xml version="1.0" encoding="UTF-8" standalone="no"?>
<!DOCTYPE svg PUBLIC "-//W3C//DTD SVG 1.1//EN" "http://www.w3.org/Graphics/SVG/1.1/DTD/svg11.dtd">
<!-- Generated by graphviz version 2.40.1 (20161225.0304)
 -->
<!-- Title: %0 Pages: 1 -->
<svg width="445pt" height="176pt" viewBox="0.00 0.00 444.50 176.40" xmlns="http://www.w3.org/2000/svg" xmlns:xlink="http://www.w3.org/1999/xlink">
<g id="graph0" class="graph" transform="scale(1 1) rotate(0) translate(4 172.4)">
<title>%0</title>
<polygon fill="#ffffff" stroke="transparent" points="-4,4 -4,-172.4 440.5,-172.4 440.5,4 -4,4"/>
<!-- TaskID 0 -->
<g id="node1" class="node">
<title>TaskID 0</title>
<polygon fill="#ededed" stroke="#000000" points="0,-46.5 0,-120.9 121.5,-120.9 121.5,-46.5 0,-46.5"/>
<text text-anchor="middle" x="60.75" y="-104.3" font-family="Times,serif" font-size="14.00" fill="#000000">Build backend</text>
<polyline fill="none" stroke="#000000" points="0,-96.1 121.5,-96.1 "/>
<text text-anchor="middle" x="20.25" y="-79.5" font-family="Times,serif" font-size="14.00" fill="#000000">0.5d</text>
<polyline fill="none" stroke="#000000" points="40.5,-71.3 40.5,-96.1 "/>
<text text-anchor="middle" x="60.75" y="-79.5" font-family="Times,serif" font-size="14.00" fill="#000000">1.5d</text>
<polyline fill="none" stroke="#000000" points="81,-71.3 81,-96.1 "/>
<text text-anchor="middle" x="101.25" y="-79.5" font-family="Times,serif" font-size="14.00" fill="#000000">4.0d</text>
<polyline fill="none" stroke="#000000" points="0,-71.3 121.5,-71.3 "/>
<text text-anchor="middle" x="60.75" y="-54.7" font-family="Times,serif" font-size="14.00" fill="#000000">CP: 100.%</text>
</g>
<!-- TaskID 1 -->
<g id="node2" class="node">
<title>TaskID 1</title>
<polygon fill="#ededed" stroke="#000000" points="157.5,-93.5 157.5,-167.9 279,-167.9 279,-93.5 157.5,-93.5"/>
<text text-anchor="middle" x="218.25" y="-151.3" font-family="Times,serif" font-size="14.00" fill="#000000">Build frontend</text>
<polyline fill="none" stroke="#000000" points="157.5,-143.1 279,-143.1 "/>
<text text-anchor="middle" x="177.75" y="-126.5" font-family="Times,serif" font-size="14.00" fill="#000000">2.0d</text>
<polyline fill="none" stroke="#000000" points="198,-118.3 198,-143.1 "/>
<text text-anchor="middle" x="218.25" y="-126.5" font-family="Times,serif" font-size="14.00" fill="#000000">4.5d</text>
<polyline fill="none" stroke="#000000" points="238.5,-118.3 238.5,-143.1 "/>
<text text-anchor="middle" x="258.75" y="-126.5" font-family="Times,serif" font-size="14.00" fill="#000000">7.0d</text>
<polyline fill="none" stroke="#000000" points="157.5,-118.3 279,-118.3 "/>
<text text-anchor="middle" x="218.25" y="-101.7" font-family="Times,serif" font-size="14.00" fill="#000000">CP: 46.1%</text>
</g>
<!-- TaskID 0&#45;&gt;TaskID 1 -->
<g id="edge1" class="edge">
<title>TaskID 0-&gt;TaskID 1</title>
<path fill="none" stroke="#000000" d="M121.6436,-101.8714C130.1343,-104.4051 138.9173,-107.0261 147.569,-109.6079"/>
<polygon fill="#000000" stroke="#000000" points="146.6754,-112.9937 157.2587,-112.4994 148.6771,-106.286 146.6754,-112.9937"/>
</g>
<!-- TaskID 2 -->
<g id="node3" class="node">
<title>TaskID 2</title>
<polygon fill="#ededed" stroke="#000000" points="157.5,-.5 157.5,-74.9 279,-74.9 279,-.5 157.5,-.5"/>
<text text-anchor="middle" x="218.25" y="-58.3" font-family="Times,serif" font-size="14.00" fill="#000000">Write docs</text>
<polyline fill="none" stroke="#000000" points="157.5,-50.1 279,-50.1 "/>
<text text-anchor="middle" x="177.75" y="-33.5" font-family="Times,serif" font-size="14.00" fill="#000000">3.0d</text>
<polyline fill="none" stroke="#000000" points="198,-25.3 198,-50.1 "/>
<text text-anchor="middle" x="218.25" y="-33.5" font-family="Times,serif" font-size="14.00" fill="#000000">4.0d</text>
<polyline fill="none" stroke="#000000" points="238.5,-25.3 238.5,-50.1 "/>
<text text-anchor="middle" x="258.75" y="-33.5" font-family="Times,serif" font-size="14.00" fill="#000000">9.0d</text>
<polyline fill="none" stroke="#000000" points="157.5,-25.3 279,-25.3 "/>
<text text-anchor="middle" x="218.25" y="-8.7" font-family="Times,serif" font-size="14.00" fill="#000000">CP: 53.8%</text>
</g>
<!-- TaskID 0&#45;&gt;TaskID 2 -->
<g id="edge2" class="edge">
<title>TaskID 0-&gt;TaskID 2</title>
<path fill="none" stroke="#000000" d="M121.6436,-65.9152C130.1343,-63.4354 138.9173,-60.8702 147.569,-58.3433"/>
<polygon fill="#000000" stroke="#000000" points="148.6409,-61.6766 157.2587,-55.5133 146.6784,-54.9573 148.6409,-61.6766"/>
</g>
<!-- TaskID 3 -->
<g id="node4" class="node">
<title>TaskID 3</title>
<polygon fill="#ededed" stroke="#000000" points="315,-46.5 315,-120.9 436.5,-120.9 436.5,-46.5 315,-46.5"/>
<text text-anchor="middle" x="375.75" y="-104.3" font-family="Times,serif" font-size="14.00" fill="#000000">Deploy</text>
<polyline fill="none" stroke="#000000" points="315,-96.1 436.5,-96.1 "/>
<text text-anchor="middle" x="335.25" y="-79.5" font-family="Times,serif" font-size="14.00" fill="#000000">3.0d</text>
<polyline fill="none" stroke="#000000" points="355.5,-71.3 355.5,-96.1 "/>
<text text-anchor="middle" x="375.75" y="-79.5" font-family="Times,serif" font-size="14.00" fill="#000000">3.5d</text>
<polyline fill="none" stroke="#000000" points="396,-71.3 396,-96.1 "/>
<text text-anchor="middle" x="416.25" y="-79.5" font-family="Times,serif" font-size="14.00" fill="#000000">8.0d</text>
<polyline fill="none" stroke="#000000" points="315,-71.3 436.5,-71.3 "/>
<text text-anchor="middle" x="375.75" y="-54.7" font-family="Times,serif" font-size="14.00" fill="#000000">CP: 100.%</text>
</g>
<!-- TaskID 1&#45;&gt;TaskID 3 -->
<g id="edge3" class="edge">
<title>TaskID 1-&gt;TaskID 3</title>
<path fill="none" stroke="#000000" d="M279.1436,-112.5286C287.6343,-109.9949 296.4173,-107.3739 305.069,-104.7921"/>
<polygon fill="#000000" stroke="#000000" points="306.1771,-108.114 314.7587,-101.9006 304.1754,-101.4063 306.1771,-108.114"/>
</g>
<!-- TaskID 2&#45;&gt;TaskID 3 -->
<g id="edge4" class="edge">
<title>TaskID 2-&gt;TaskID 3</title>
<path fill="none" stroke="#000000" d="M279.1436,-55.4848C287.6343,-57.9646 296.4173,-60.5298 305.069,-63.0567"/>
<polygon fill="#000000" stroke="#000000" points="304.1784,-66.4427 314.7587,-65.8867 306.1409,-59.7234 304.1784,-66.4427"/>
</g>
</g>
</svg>